<svg width="58" height="63" viewBox="0 0 58 63" fill="none" xmlns="http://www.w3.org/2000/svg">
<g clip-path="url(#clip0_1275_310)">
<path d="M35.1256 20.7717L29.2517 25.0796L23.3779 20.7717C23.1094 20.5045 22.673 20.5045 22.4045 20.7717C22.136 21.0388 22.136 21.473 22.4045 21.7401L28.5469 26.3654V30.9238C28.5469 31.2911 28.849 31.6084 29.235 31.6084C29.6042 31.6084 29.923 31.3078 29.923 30.9238V26.3821L36.0822 21.7401C36.3507 21.473 36.3507 21.0388 36.0822 20.7717C35.8137 20.5045 35.3941 20.5045 35.1256 20.7717Z" fill="white"/>
<path d="M4.63151 2.42115C3.07075 3.97403 2.21484 6.04453 2.21484 8.23191C2.21484 12.7737 5.92376 16.4638 10.4886 16.4638C12.6871 16.4638 14.7681 15.6122 16.3288 14.0427C17.8896 12.4898 18.7623 10.4193 18.7455 8.21521C18.7455 3.69017 15.0366 0 10.4718 0C8.27329 0 6.19227 0.868275 4.63151 2.42115ZM16.5638 8.23191C16.5638 9.85158 15.9261 11.3711 14.7849 12.5065C13.6269 13.6586 12.0997 14.2764 10.4886 14.2764C7.13209 14.2764 4.41334 11.5714 4.39656 8.23191C4.39656 6.61224 5.03429 5.09276 6.17549 3.95733C7.33348 2.80519 8.86068 2.17069 10.4718 2.17069C13.8283 2.17069 16.5638 4.89239 16.5638 8.23191Z" fill="white"/>
<path d="M1.09086 29.0541H19.8536C20.441 29.0541 20.9277 28.5865 20.9444 28.0021C20.9612 27.7015 21.129 20.7554 16.7488 16.7479C16.3628 16.3973 15.7755 16.3806 15.3391 16.6978C15.3056 16.7312 10.4387 20.3713 5.92419 16.6978C5.50463 16.3639 4.91725 16.3806 4.51447 16.7145C4.32986 16.8815 0.100694 20.6218 0 27.952C0 28.2359 0.100694 28.5197 0.318866 28.7368C0.520255 28.9372 0.805555 29.0541 1.09086 29.0541ZM5.35359 18.9854C9.29745 21.5902 13.5434 20.3546 15.8762 18.9687C18.1082 21.4733 18.6285 25.1134 18.7459 26.8834H2.24884C2.58449 22.7257 4.39699 20.1041 5.35359 18.9854Z" fill="white"/>
<path d="M47.5109 16.4639C49.7262 16.4639 51.7904 15.6123 53.3512 14.0428C54.912 12.4899 55.7846 10.4194 55.7679 8.21531C55.7679 3.67357 52.0589 -0.0166016 47.4941 -0.0166016C45.3124 9.60268e-05 43.2314 0.868371 41.6706 2.42125C40.1099 3.97412 39.254 6.04462 39.254 8.24871C39.2372 12.7738 42.9461 16.4639 47.5109 16.4639ZM43.2146 3.95742C44.3726 2.80529 45.8998 2.18748 47.5109 2.18748C50.8674 2.18748 53.5861 4.90919 53.6029 8.23201C53.6029 9.85167 52.9652 11.3712 51.824 12.5066C50.6828 13.6587 49.1556 14.2765 47.5277 14.2765C44.1712 14.2765 41.4525 11.5715 41.4357 8.23201C41.4357 6.61234 42.0566 5.09286 43.2146 3.95742Z" fill="white"/>
<path d="M57.9837 28.0021C58.0005 27.7015 58.1683 20.7554 53.7713 16.7479C53.3853 16.3973 52.7811 16.3639 52.3616 16.6811C52.3112 16.7145 47.4611 20.3546 42.9467 16.6978C42.5271 16.3639 41.9397 16.3806 41.5369 16.7145C41.3523 16.8648 37.1232 20.6051 37.0225 27.9353C37.0225 28.2192 37.1232 28.503 37.3413 28.7201C37.5427 28.9205 37.828 29.0374 38.1133 29.0374H56.876C57.4802 29.0541 57.9669 28.5865 57.9837 28.0021ZM39.2713 26.8834C39.607 22.7257 41.4195 20.1041 42.3928 18.9854C46.3367 21.5902 50.5826 20.3546 52.9154 18.9687C55.1475 21.4733 55.6677 25.1134 55.7852 26.8834H39.2713Z" fill="white"/>
<path d="M29.2521 33.9463C27.0368 33.9463 24.9725 34.7979 23.4118 36.3674C21.851 37.9203 20.9951 39.9908 20.9951 42.1949C20.9951 46.7366 24.704 50.4268 29.2688 50.4268C31.4841 50.4268 33.5484 49.5752 35.1091 48.0057C36.6699 46.4528 37.5426 44.3823 37.5258 42.1949C37.5258 37.6365 33.8169 33.9463 29.2521 33.9463ZM33.5484 46.4528C32.3904 47.6049 30.88 48.2227 29.2521 48.2227C25.8956 48.2227 23.1768 45.501 23.1768 42.1782C23.1768 40.5585 23.8146 39.0391 24.9558 37.9036C26.1138 36.7515 27.641 36.1337 29.2521 36.1337C32.6085 36.1337 35.3273 38.8554 35.3441 42.1782C35.3273 43.7812 34.7063 45.3006 33.5484 46.4528Z" fill="white"/>
<path d="M19.8705 62.9999H38.6332C39.2206 62.9999 39.7073 62.5324 39.7241 61.948C39.7241 61.6474 39.9087 54.7013 35.5117 50.6938C35.1257 50.3432 34.5216 50.3098 34.102 50.627C34.0516 50.6604 29.2015 54.3005 24.6703 50.627C24.2507 50.2931 23.6633 50.3098 23.2606 50.6437C23.076 50.794 18.8468 54.5343 18.7461 61.8645C18.7461 62.1484 18.8636 62.4322 19.065 62.6493C19.2831 62.8831 19.5684 62.9999 19.8705 62.9999ZM24.1332 52.9313C28.0771 55.5361 32.3231 54.3005 34.6558 52.9146C36.8879 55.4192 37.4081 59.0593 37.5256 60.8293H21.0285C21.3474 56.6716 23.1599 54.05 24.1332 52.9313Z" fill="white"/>
</g>
<defs>
<clipPath id="clip0_1275_310">
<rect width="58" height="63" fill="white"/>
</clipPath>
</defs>
</svg>
