<svg width="88" height="72" viewBox="0 0 88 72" fill="none" xmlns="http://www.w3.org/2000/svg">
<g clip-path="url(#clip0_1275_293)">
<path d="M66.2584 0L58.7637 7.44037C58.3824 7.3905 58.0112 7.3506 57.64 7.32068C54.9511 6.2535 50.1754 5.48552 44.5769 9.77421L44.4465 9.89389L42.6104 11.729C35.6876 7.06137 30.1895 9.93379 28.6444 10.9511L21.7416 4.08921L0 25.7022L8.23715 33.8906C8.30738 37.5609 9.61168 41.3309 12.1701 45.1309C13.2236 46.6968 14.4476 48.143 15.782 49.4794C17.4776 51.1949 19.2033 52.8805 20.9089 54.586C19.0528 57.2689 19.8554 59.493 21.7818 61.4977C23.7884 63.5722 25.6345 63.8216 28.3534 63.0337C28.3735 63.0237 28.4036 63.0337 28.4136 63.0536C30.3601 65.9559 32.166 67.3622 34.1024 67.5218C34.905 68.2998 35.7077 69.0877 36.5103 69.8656C38.9082 72.1696 42.5703 72.6882 45.4598 71.0326C46.7139 70.3244 46.9246 69.736 47.5668 68.7187C52.4629 72.7979 55.7236 72.8777 59.5663 67.1528C59.5763 67.1328 59.6064 67.1229 59.6265 67.1328C62.3655 67.9208 64.2116 67.6714 66.2182 65.5969C68.265 63.4825 69.0375 61.1187 66.75 58.2263C66.7299 58.2064 66.148 57.4384 66.1681 57.4484C67.7934 57.4983 69.0877 56.471 69.8 55.5534C71.6963 53.1198 71.5759 50.5666 69.5492 48.0432C70.4321 47.1556 71.3351 46.2779 72.218 45.3902C73.5524 44.0438 74.7764 42.6076 75.8299 41.0417C78.3783 37.2318 79.6926 33.4717 79.7629 29.8014L88 21.613L66.2584 0ZM17.0963 46.3477C14.5981 43.7246 12.7219 40.8223 11.8992 37.531C11.7186 36.8029 11.5882 36.0449 11.518 35.2769C11.4578 34.6486 11.4377 34.0003 11.4578 33.342L3.10022 25.0339L21.0694 7.18105L26.8284 12.9059L27.2097 13.2849L27.1896 13.3448L29.9688 13.5742L30.1494 13.1254C31.243 12.3773 35.798 9.86397 41.888 14.4718L49.9346 22.5106C50.3359 22.9095 50.5566 23.4481 50.5566 24.0266C50.5566 24.6051 50.3258 25.1436 49.9245 25.5426L49.3928 26.0712C48.55 26.909 47.1855 26.899 46.3427 26.0612L38.1156 17.8429L36.119 19.2392L38.3464 21.8324L39.3095 22.7998C38.3664 23.7374 37.4133 24.6749 36.4702 25.6224C36.2294 25.8618 36.099 26.1111 36.0287 26.3704C35.9786 26.4203 35.9384 26.4701 35.8883 26.52C30.3601 32.0255 24.8017 37.511 19.2835 43.0364C18.1799 44.1236 17.4575 45.2406 17.0963 46.3477ZM43.7743 68.6389C43.1422 69.2373 42.48 69.6063 41.5269 69.5365C40.2125 69.4368 39.2995 68.4394 38.6674 67.8111C38.2761 67.4321 37.8949 67.0431 37.5036 66.6641C38.4166 66.1754 39.3798 65.5071 40.4132 64.6394C41.0553 65.6468 41.266 66.2352 42.5201 66.9433C43.082 67.2625 43.6739 67.5019 44.2759 67.6614C44.1756 68.0604 44.0151 68.4194 43.7743 68.6389ZM55.6434 67.5318C54.4093 68.968 52.9946 69.0977 51.1887 67.4321C50.9078 67.1727 50.6369 66.9134 50.3559 66.6541C50.7472 66.3948 51.1285 66.1056 51.4797 65.7664C52.5131 64.7791 53.5264 63.7717 54.5598 62.7743C54.6702 62.8841 54.7805 62.9938 54.8909 63.1035C56.5865 64.799 56.8072 66.1654 55.6434 67.5318ZM64.2417 63.0636C62.9976 64.7591 61.0913 64.789 59.3757 63.1035C58.5229 62.2657 57.6801 61.4179 56.8373 60.5801C58.2319 59.2237 59.6365 57.8673 61.0311 56.5109C61.8137 57.2988 62.6063 58.0767 63.3989 58.8647C64.9139 60.3607 65.1748 61.7969 64.2417 63.0636ZM67.7232 53.05C67.0911 54.6258 65.2049 55.3639 63.71 54.5461C63.5595 54.4663 63.429 54.3765 63.2886 54.2867C64.633 52.9602 65.9674 51.6138 67.3118 50.2873C67.8837 51.0453 68.1847 51.8931 67.7232 53.05ZM76.5422 29.2528C76.5623 29.9111 76.5423 30.5594 76.482 31.1877C76.4118 31.9557 76.2814 32.7137 76.1008 33.4417C75.2781 36.743 73.3919 39.6554 70.8736 42.2884C67.4623 45.859 63.8805 49.28 60.379 52.7608C56.6968 56.4211 53.0348 60.0914 49.3326 63.7119C48.7005 64.3302 47.7875 65.3276 46.4732 65.4273C45.52 65.5071 44.8679 65.1381 44.2257 64.5297C43.6539 63.9911 43.4733 62.6347 43.694 61.7869C43.9348 60.8694 44.7475 60.0416 45.4698 59.3035C47.1454 57.598 48.851 55.9224 50.5466 54.2369C51.3693 53.4091 52.192 52.5912 53.0047 51.7534C53.8675 50.8658 56.3959 48.9907 54.9812 47.6742C53.6769 46.4574 51.8107 48.8012 51.0282 49.5792C50.2055 50.407 49.3727 51.2248 48.54 52.0427C44.6471 55.8227 40.8045 59.6526 36.8213 63.3229C35.0154 64.9885 33.6007 64.8588 32.3667 63.4127C31.1928 62.0463 31.4236 60.6799 33.1191 58.9943C37.5337 54.6059 41.9482 50.2175 46.3528 45.8291C46.9748 45.2107 47.5066 44.8117 47.6169 43.8742C47.6972 43.1761 47.4464 42.5677 46.724 42.458C45.51 42.2784 44.9782 42.7372 44.2057 43.5052C39.0086 48.6815 33.8215 53.8579 28.6243 59.0043C26.9187 60.6898 25.0124 60.6599 23.7583 58.9644C22.8252 57.6977 23.0861 56.2615 24.6011 54.7555C29.8684 49.4994 35.1458 44.2532 40.4332 39.017C41.2961 38.1593 41.9783 37.2118 40.9148 36.2244C39.9015 35.2869 39.0286 36.1147 38.2661 36.8827C34.2027 40.932 30.1393 44.9813 26.0659 49.0107C25.5241 49.5492 24.9522 50.0978 24.29 50.4568C22.7951 51.2747 20.9089 50.5267 20.2768 48.9508C19.6247 47.3351 20.4574 46.3078 21.4908 45.2905C28.2431 38.5981 34.9953 31.9158 41.6874 25.1736L44.4465 27.9263C45.3896 28.8638 46.6236 29.3426 47.8677 29.3326C49.1018 29.3326 50.3258 28.8738 51.269 27.9363L51.8007 27.4077C52.7137 26.51 53.2154 25.3032 53.2154 24.0166C53.2154 22.8098 52.7639 21.6828 51.9612 20.8051L45.831 14.6513L44.6271 13.4445L46.2625 11.8088C48.8008 9.89389 51.0583 9.21568 52.9244 9.12592C56.3357 8.81673 59.3556 10.592 59.3556 10.592L61.1716 8.78681L66.9306 3.06192L84.8998 20.9447L76.5422 29.2528Z" fill="white"/>
</g>
<defs>
<clipPath id="clip0_1275_293">
<rect width="88" height="72" fill="white"/>
</clipPath>
</defs>
</svg>
