<svg width="73" height="48" viewBox="0 0 73 48" fill="none" xmlns="http://www.w3.org/2000/svg">
<g clip-path="url(#clip0_1275_300)">
<path d="M21.137 46.7349C21.137 47.0717 21.2613 47.3921 21.5017 47.6304C21.7421 47.8686 22.0653 48 22.4052 48L50.3801 47.9918C51.0598 47.9918 51.6234 47.4578 51.64 46.7842C51.6483 46.6117 51.6897 44.8373 51.3167 42.4056H71.7405C72.4202 42.4056 72.9838 41.8717 73.0004 41.1898C73.0169 40.7627 73.2739 30.609 66.85 24.7763C66.3941 24.3656 65.7145 24.341 65.2254 24.7106C65.1508 24.7681 57.6826 30.3297 50.7282 24.7106C50.2474 24.3245 49.5678 24.341 49.1036 24.7353C48.9544 24.8667 46.9153 26.6658 45.1415 30.1489C44.7271 29.9682 44.2463 30.0175 43.8733 30.2968C43.5666 30.5268 36.289 35.8912 29.3678 30.305C29.028 30.0339 28.5886 29.96 28.1908 30.0832C27.2956 28.1856 26.0688 26.329 24.353 24.7681C23.8972 24.3574 23.2175 24.3327 22.7284 24.7024C22.6538 24.7599 15.1856 30.3214 8.23121 24.7024C7.75045 24.3163 7.07077 24.3327 6.60659 24.7271C6.34135 24.9653 0.157855 30.4118 0.000366533 41.1405C-0.00792233 41.4774 0.124699 41.7977 0.365076 42.036C0.605453 42.2742 0.928719 42.4056 1.26856 42.4056H21.568C21.3193 43.7447 21.1618 45.1741 21.137 46.7349ZM50.0568 27.3476C56.663 31.9151 63.4102 28.7442 65.8305 27.2983C69.5854 31.299 70.3065 37.337 70.4391 39.9001H50.8028C50.1646 37.337 49.029 34.47 47.0479 32.0302C48.1006 29.7628 49.3108 28.1856 50.0568 27.3476ZM28.6964 32.942C35.3026 37.5095 42.0498 34.3386 44.4701 32.8927C48.225 36.8934 48.9461 42.9314 49.0787 45.4863L23.7148 45.4945C24.1624 38.7664 27.2707 34.5357 28.6964 32.942ZM2.5782 39.9083C3.0258 33.172 6.14241 28.9495 7.55981 27.3558C14.166 31.9234 20.9132 28.7524 23.3335 27.3066C24.6266 28.6867 25.5549 30.3132 26.2346 31.948C24.9747 33.4924 23.2258 36.1376 22.1399 39.9083H2.5782Z" fill="white"/>
<path d="M3.29102 11.8542C3.29102 18.3851 8.65391 23.7002 15.2518 23.7002C18.4431 23.7002 21.4436 22.4679 23.7065 20.2252C24.0215 19.9131 24.3116 19.5845 24.5851 19.2476C25.4637 24.9242 30.4205 29.2945 36.3884 29.2945C39.5797 29.2945 42.5802 28.0623 44.8348 25.8196C46.7246 23.9466 47.8851 21.5643 48.2249 18.993C50.4132 21.8436 53.8614 23.7002 57.7405 23.7002C60.9318 23.7002 63.9323 22.4679 66.1952 20.2252C68.458 17.9825 69.7014 15.0087 69.7014 11.846C69.7014 5.31508 64.3385 0 57.7488 0C54.5576 0 51.5571 1.23224 49.2942 3.47493C47.4126 5.33972 46.2439 7.72206 45.9041 10.3016C43.7158 7.45097 40.2676 5.59439 36.3884 5.59439C33.1972 5.59439 30.1967 6.82663 27.9338 9.06931C27.6188 9.38148 27.337 9.71008 27.0552 10.0469C26.1683 4.37036 21.2198 0 15.2518 0C12.0606 0 9.06006 1.23224 6.7972 3.47493C4.53434 5.71761 3.29102 8.69143 3.29102 11.8542ZM51.0763 5.24936C52.8584 3.48314 55.229 2.50556 57.7488 2.50556C62.9459 2.50556 67.1816 6.70341 67.1816 11.8542C67.1816 14.3515 66.2035 16.6928 64.4131 18.4672C62.631 20.2334 60.2604 21.211 57.7488 21.211C52.5517 21.211 48.3161 17.0132 48.3161 11.8624C48.3161 9.36505 49.2942 7.01557 51.0763 5.24936ZM29.7159 10.8437C31.498 9.07753 33.8686 8.09995 36.3801 8.09995C41.5773 8.09995 45.8129 12.2978 45.8129 17.4486C45.8129 19.9377 44.8348 22.2872 43.0444 24.0616C41.2623 25.8278 38.8917 26.8054 36.3801 26.8054C31.183 26.8054 26.9474 22.6158 26.9474 17.465C26.9474 14.9594 27.9338 12.61 29.7159 10.8437ZM15.2518 2.50556C20.449 2.50556 24.6846 6.70341 24.6846 11.8542C24.6846 14.3515 23.6982 16.6928 21.9161 18.4672C20.134 20.2334 17.7634 21.211 15.2518 21.211C10.0547 21.211 5.81912 17.0132 5.81912 11.8624C5.81912 9.37327 6.7972 7.02379 8.5876 5.25757C10.3614 3.47493 12.732 2.50556 15.2518 2.50556Z" fill="white"/>
</g>
<defs>
<clipPath id="clip0_1275_300">
<rect width="73" height="48" fill="white"/>
</clipPath>
</defs>
</svg>
