<svg width="81" height="57" viewBox="0 0 81 57" fill="none" xmlns="http://www.w3.org/2000/svg">
<g clip-path="url(#clip0_1275_307)">
<path d="M80.9794 13.4319V12.4377C80.9794 11.5263 80.2484 10.7911 79.3423 10.7911C78.0141 10.7911 75.6666 10.3872 72.7013 9.64153L72.1556 9.43441C72.0938 9.4137 72.0423 9.39299 71.9908 9.38263C65.8131 7.84993 53.3136 4.68096 35.841 0.207122L35.7174 0.176054C35.6865 0.165698 35.6556 0.155342 35.6248 0.155342C35.1202 0.0517805 34.626 0 34.1524 0C33.3596 0 32.5565 0.144985 31.7225 0.434956C31.7019 0.434956 31.671 0.445312 31.6504 0.455669L31.4445 0.538517C31.2798 0.590298 31.115 0.673147 30.9709 0.776708L3.43892 20.8675C2.91382 21.1472 2.4299 21.5096 1.98716 21.9446C1.96657 21.9653 1.93568 21.9964 1.91509 22.0171C0.679547 23.2495 0 24.8857 0 26.6152C0 30.0016 2.51227 32.7667 5.85852 33.1085C6.49689 33.2327 7.12495 33.2535 7.87657 33.1395C8.17516 33.0981 8.45316 33.036 8.71056 32.9531C9.02974 32.8599 9.34892 32.7253 9.6887 32.5492C9.85344 32.4664 10.0285 32.3732 10.1932 32.2696C10.2447 32.2386 10.3065 32.1971 10.358 32.1661L13.385 29.9706L13.766 29.722C12.9629 31.2133 12.5304 32.9013 12.5304 34.6619C12.5304 35.7907 12.7055 36.8988 13.0555 37.9551C13.4365 39.115 14.0131 40.192 14.7853 41.1448C15.1045 41.5487 15.4649 41.9215 15.7943 42.2322L29.2514 56.5443C29.5191 56.8343 29.9001 57 30.2913 57C30.6826 57 31.0636 56.8343 31.3313 56.5443L45.262 41.704C45.2826 41.673 45.3135 41.6523 45.334 41.6212C46.0857 40.7927 46.7034 39.8192 47.1565 38.7733H49.3907C50.8631 38.8147 52.7061 38.8457 54.9816 38.8457C60.3768 38.8457 64.1452 36.7124 67.1208 34.6205C67.8518 34.113 68.5622 33.5848 69.2624 33.0567C72.4851 30.6541 75.265 28.5725 79.3629 28.5725C79.888 28.5725 80.3925 28.3136 80.7014 27.889C80.9588 27.5265 81.0618 27.0812 80.9897 26.6566L81.0103 13.7426C81 13.6286 80.9897 13.5354 80.9794 13.4319ZM43.1821 39.7157C43.1616 39.7364 43.141 39.7571 43.1204 39.7778L30.2913 53.4686L17.8536 40.2128L17.7506 40.1195C17.4932 39.8814 17.2358 39.6121 17.0093 39.3325C16.4636 38.649 16.0517 37.8826 15.7737 37.0438C15.5266 36.2774 15.3928 35.48 15.3928 34.6619C15.3928 32.746 16.0826 30.944 17.3491 29.5874C18.5846 28.2618 20.2217 27.5265 21.9514 27.5265C24.4946 27.5265 26.8421 29.1628 27.9129 31.6897C28.3248 32.6528 29.2514 33.2845 30.2707 33.2845C31.2901 33.2845 32.2167 32.6528 32.6183 31.6897C33.6891 29.1628 36.0366 27.5265 38.5798 27.5265C40.2271 27.5265 41.7819 28.1997 42.9865 29.401H37.962C35.3879 29.401 33.2978 31.5033 33.2978 34.0923C33.2978 36.6813 35.3879 38.7836 37.962 38.7836H43.9029C43.6867 39.1047 43.4498 39.4257 43.1821 39.7157ZM21.5087 24.6786L29.9722 19.1588C30.1987 19.1277 30.4561 19.1174 30.765 19.1277C31.7534 19.3659 35.285 20.298 41.2671 21.8928L41.5348 21.9653C42.8836 22.3588 44.253 22.7213 45.5812 23.0423C47.4345 23.5394 48.9068 23.933 49.4937 24.0883C50.338 24.6268 50.8528 25.5485 50.8528 26.5427C50.8528 27.9408 49.885 29.1214 48.5259 29.4113H46.5696C46.1989 28.7796 45.7665 28.179 45.262 27.6301C43.4807 25.7142 41.1023 24.6682 38.5798 24.6579C35.0894 24.6579 31.8975 26.7291 30.2605 29.9706C28.6337 26.7188 25.4315 24.6579 21.9411 24.6579C21.797 24.6475 21.6529 24.6682 21.5087 24.6786ZM77.6949 15.441V25.3725C73.4014 25.8592 70.3023 28.1686 67.2958 30.4159C66.6162 30.9233 65.9367 31.4308 65.2366 31.9175C62.5493 33.8023 59.4398 35.5525 54.9713 35.5525C52.737 35.5525 50.9249 35.5318 49.4319 35.4904H37.962C37.2001 35.4904 36.5823 34.8586 36.5823 34.0923C36.5823 33.3259 37.2001 32.7046 37.962 32.7046H48.6803C48.773 32.7046 48.8553 32.6942 48.948 32.6839C51.9545 32.1868 54.1373 29.6081 54.1373 26.5427C54.1373 24.2851 52.912 22.2035 50.9352 21.1161C50.8219 21.054 50.6984 21.0022 50.5645 20.9711C50.2247 20.8779 48.5876 20.4429 46.3843 19.8527C45.0663 19.5316 43.7484 19.1795 42.4099 18.7963L42.1114 18.7135C35.6556 16.9944 32.1447 16.0727 31.3621 15.8863C31.2695 15.8656 31.1768 15.8448 31.0739 15.8448C30.2502 15.8034 29.55 15.8552 28.9322 16.0105C28.7572 16.052 28.5925 16.1245 28.438 16.228L11.5523 27.2366C11.5317 27.2573 11.5008 27.2676 11.4802 27.2883L8.50464 29.4528C8.49434 29.4631 8.47375 29.4735 8.46345 29.4838C8.38109 29.5356 8.27812 29.5874 8.18546 29.6392C8.00013 29.7324 7.86628 29.7945 7.74272 29.8256C7.61917 29.867 7.50591 29.8877 7.37206 29.9084C7.05288 29.9602 6.7234 29.9602 6.40422 29.8877C6.34244 29.8774 6.28067 29.867 6.20859 29.8566C4.52002 29.7117 3.25359 28.3239 3.25359 26.6359C3.25359 25.7763 3.59336 24.9686 4.21113 24.3576C4.22143 24.3472 4.23173 24.3368 4.24202 24.3265C4.48913 24.0883 4.74654 23.8915 5.02453 23.7569C5.1069 23.7155 5.17898 23.6741 5.24075 23.6223L6.40422 22.7731L32.6801 3.61428C32.7212 3.60392 32.7624 3.58321 32.8036 3.5625C33.5655 3.3036 34.1936 3.26217 34.8937 3.3968L35.007 3.38645C52.4178 7.84993 64.8968 11.0085 71.1054 12.5516L71.6408 12.7484C71.6923 12.7691 71.754 12.7898 71.8158 12.8001C74.2045 13.4008 76.1814 13.7943 77.7155 13.9704L77.6949 15.441Z" fill="white"/>
</g>
<defs>
<clipPath id="clip0_1275_307">
<rect width="81" height="57" fill="white"/>
</clipPath>
</defs>
</svg>
