<svg width="56" height="69" viewBox="0 0 56 69" fill="none" xmlns="http://www.w3.org/2000/svg">
<g clip-path="url(#clip0_1275_304)">
<path d="M43.8257 24.251C50.5381 24.251 56.01 18.8155 56.01 12.1255C56.01 5.43558 50.5381 0 43.8257 0C37.1033 0 31.6413 5.43558 31.6413 12.1255C31.6413 13.6686 31.9414 15.132 32.4716 16.4859L19.1068 25.6448C17.1361 24.2909 14.7553 23.4845 12.1844 23.4845C5.46195 23.4845 0 28.93 0 35.61C0 42.3 5.46195 47.7355 12.1844 47.7355C15.0054 47.7355 17.6063 46.7699 19.677 45.1571L32.0915 53.6589C31.8014 54.6843 31.6413 55.7694 31.6413 56.8844C31.6413 63.5744 37.1033 69.01 43.8257 69.01C50.5381 69.01 56.01 63.5744 56.01 56.8844C56.01 50.1945 50.5481 44.7589 43.8257 44.7589C40.8846 44.7589 38.1836 45.8042 36.0729 47.5364L23.8385 39.1541C24.1886 38.0391 24.3687 36.8445 24.3687 35.61C24.3687 34.1366 24.0886 32.723 23.5984 31.4188L37.0432 22.2003C38.9839 23.4944 41.3148 24.251 43.8257 24.251ZM43.8257 2.98658C48.8875 2.98658 53.0089 7.08816 53.0089 12.1255C53.0089 17.1629 48.8875 21.2645 43.8257 21.2645C38.7638 21.2645 34.6424 17.1629 34.6424 12.1255C34.6324 7.08816 38.7538 2.98658 43.8257 2.98658ZM12.1844 44.749C7.12254 44.749 3.00107 40.6474 3.00107 35.61C3.00107 30.5726 7.12254 26.4711 12.1844 26.4711C17.2462 26.4711 21.3676 30.5726 21.3676 35.61C21.3676 40.6474 17.2462 44.749 12.1844 44.749ZM43.8257 47.7355C48.8875 47.7355 53.0089 51.8371 53.0089 56.8745C53.0089 61.9118 48.8875 66.0134 43.8257 66.0134C38.7638 66.0134 34.6424 61.9118 34.6424 56.8745C34.6324 51.8371 38.7538 47.7355 43.8257 47.7355ZM34.0021 49.7365C33.7421 50.0949 33.492 50.4633 33.2719 50.8416L21.8178 42.9968C22.0879 42.6484 22.338 42.28 22.5681 41.9117L34.0021 49.7365ZM22.2179 28.7409C21.9678 28.3725 21.6877 28.0241 21.3976 27.6956L33.9021 19.1241C34.1622 19.4825 34.4423 19.8309 34.7324 20.1594L22.2179 28.7409Z" fill="white"/>
</g>
<defs>
<clipPath id="clip0_1275_304">
<rect width="56" height="69" fill="white"/>
</clipPath>
</defs>
</svg>
