<svg width="29" height="28" viewBox="0 0 29 28" fill="none" xmlns="http://www.w3.org/2000/svg">
<g clip-path="url(#clip0_1275_253)">
<path d="M24.01 5.14179C22.248 4.33332 20.3586 3.73767 18.383 3.39651C18.347 3.38993 18.3111 3.40638 18.2925 3.43929C18.0495 3.87149 17.7804 4.43533 17.5919 4.87851C15.467 4.56039 13.3531 4.56039 11.2718 4.87851C11.0833 4.42548 10.8044 3.87149 10.5603 3.43929C10.5417 3.40748 10.5058 3.39103 10.4698 3.39651C8.49534 3.73658 6.60587 4.33223 4.84278 5.14179C4.82752 5.14837 4.81444 5.15935 4.80575 5.17361C1.22182 10.5279 0.240032 15.7506 0.721665 20.9086C0.723844 20.9338 0.738009 20.958 0.757624 20.9733C3.1222 22.7098 5.41269 23.764 7.66066 24.4628C7.69663 24.4737 7.73475 24.4606 7.75765 24.4309C8.2894 23.7048 8.76342 22.9391 9.16984 22.1339C9.19382 22.0867 9.17093 22.0308 9.1219 22.0121C8.37004 21.7269 7.65411 21.3792 6.96544 20.9843C6.91097 20.9525 6.90661 20.8746 6.95672 20.8373C7.10164 20.7287 7.2466 20.6157 7.38498 20.5016C7.41002 20.4808 7.44491 20.4764 7.47434 20.4895C11.9986 22.5551 16.8967 22.5551 21.3676 20.4895C21.397 20.4753 21.4319 20.4797 21.458 20.5005C21.5964 20.6146 21.7413 20.7287 21.8874 20.8373C21.9375 20.8746 21.9342 20.9525 21.8797 20.9843C21.1911 21.3869 20.4751 21.7269 19.7222 22.011C19.6732 22.0297 19.6514 22.0867 19.6753 22.1339C20.0905 22.938 20.5645 23.7037 21.0864 24.4299C21.1082 24.4606 21.1474 24.4737 21.1834 24.4628C23.4423 23.764 25.7328 22.7098 28.0973 20.9733C28.1181 20.958 28.1311 20.9349 28.1333 20.9097C28.7097 14.9465 27.1679 9.76663 24.046 5.1747C24.0383 5.15935 24.0253 5.14837 24.01 5.14179ZM9.84546 17.7679C8.48335 17.7679 7.361 16.5174 7.361 14.9816C7.361 13.4459 8.46158 12.1953 9.84546 12.1953C11.2402 12.1953 12.3517 13.4568 12.3299 14.9816C12.3299 16.5174 11.2293 17.7679 9.84546 17.7679ZM19.0313 17.7679C17.6692 17.7679 16.5469 16.5174 16.5469 14.9816C16.5469 13.4459 17.6474 12.1953 19.0313 12.1953C20.4261 12.1953 21.5376 13.4568 21.5158 14.9816C21.5158 16.5174 20.4261 17.7679 19.0313 17.7679Z" fill="#5865F2"/>
</g>
<defs>
<clipPath id="clip0_1275_253">
<rect width="27.6449" height="27.6449" fill="white" transform="translate(0.607422 0.355103)"/>
</clipPath>
</defs>
</svg>
