<svg width="28" height="28" viewBox="0 0 28 28" fill="none" xmlns="http://www.w3.org/2000/svg">
<g clip-path="url(#clip0_1275_231)">
<path d="M27.768 14.1776C27.768 6.54362 21.5795 0.355103 13.9455 0.355103C6.31157 0.355103 0.123047 6.54362 0.123047 14.1776C0.123047 21.0766 5.1777 26.7952 11.7858 27.8321V18.1731H8.27614V14.1776H11.7858V11.1323C11.7858 7.66805 13.8494 5.7545 17.0067 5.7545C18.5185 5.7545 20.1008 6.02447 20.1008 6.02447V9.42609H18.3579C16.6409 9.42609 16.1053 10.4917 16.1053 11.5859V14.1776H19.9388L19.326 18.1731H16.1053V27.8321C22.7133 26.7952 27.768 21.0766 27.768 14.1776Z" fill="#1877F2"/>
<path d="M19.3253 18.1731L19.9381 14.1776H16.1045V11.5859C16.1045 10.4928 16.6401 9.42611 18.3572 9.42611H20.1001V6.02449C20.1001 6.02449 18.5183 5.75452 17.006 5.75452C13.8487 5.75452 11.785 7.66806 11.785 11.1323V14.1776H8.27539V18.1731H11.785V27.8321C13.2161 28.056 14.6734 28.056 16.1045 27.8321V18.1731H19.3253Z" fill="white"/>
</g>
<defs>
<clipPath id="clip0_1275_231">
<rect width="27.6449" height="27.6449" fill="white" transform="translate(0.123047 0.355103)"/>
</clipPath>
</defs>
</svg>
