<svg width="29" height="28" viewBox="0 0 29 28" fill="none" xmlns="http://www.w3.org/2000/svg">
<g clip-path="url(#clip0_1275_243)">
<path d="M14.6486 28C22.2826 28 28.4711 21.8115 28.4711 14.1776C28.4711 6.54363 22.2826 0.355103 14.6486 0.355103C7.0147 0.355103 0.826172 6.54363 0.826172 14.1776C0.826172 21.8115 7.0147 28 14.6486 28Z" fill="url(#paint0_linear_1275_243)"/>
<path fill-rule="evenodd" clip-rule="evenodd" d="M7.08272 14.0316C11.1123 12.276 13.7992 11.1186 15.1437 10.5594C18.9823 8.96281 19.78 8.68546 20.2998 8.67631C20.4142 8.67429 20.6699 8.70263 20.8355 8.83701C20.9753 8.95048 21.0138 9.10376 21.0322 9.21134C21.0506 9.31892 21.0735 9.56399 21.0553 9.75548C20.8473 11.9411 19.9472 17.2451 19.4893 19.6931C19.2955 20.7289 18.914 21.0763 18.5446 21.1102C17.742 21.1841 17.1324 20.5798 16.355 20.0701C15.1384 19.2727 14.4511 18.7762 13.2703 17.9981C11.9055 17.0987 12.7902 16.6045 13.568 15.7967C13.7715 15.5853 17.3082 12.3684 17.3767 12.0765C17.3852 12.04 17.3932 11.904 17.3123 11.8322C17.2315 11.7603 17.1122 11.7849 17.0262 11.8044C16.9041 11.8321 14.9607 13.1167 11.1958 15.6581C10.6441 16.0369 10.1445 16.2215 9.69677 16.2118C9.20324 16.2011 8.25388 15.9327 7.54813 15.7033C6.6825 15.4219 5.99451 15.2732 6.05442 14.7953C6.08562 14.5464 6.42839 14.2918 7.08272 14.0316Z" fill="white"/>
</g>
<defs>
<linearGradient id="paint0_linear_1275_243" x1="14.6486" y1="0.355103" x2="14.6486" y2="27.795" gradientUnits="userSpaceOnUse">
<stop stop-color="#2AABEE"/>
<stop offset="1" stop-color="#229ED9"/>
</linearGradient>
<clipPath id="clip0_1275_243">
<rect width="27.6449" height="27.6449" fill="white" transform="translate(0.826172 0.355103)"/>
</clipPath>
</defs>
</svg>
