<svg width="28" height="28" viewBox="0 0 28 28" fill="none" xmlns="http://www.w3.org/2000/svg">
<g clip-path="url(#clip0_1275_234)">
<path d="M8.8653 25.4091C18.9993 25.4091 24.5422 16.7662 24.5422 9.27111C24.5422 9.02562 24.5422 8.78124 24.5261 8.53796C25.6044 7.73506 26.5352 6.74091 27.275 5.60207C26.2695 6.06098 25.2027 6.36179 24.1104 6.49445C25.2607 5.78569 26.1215 4.67079 26.5327 3.3573C25.4512 4.01803 24.2679 4.48363 23.034 4.73402C22.2033 3.82471 21.1046 3.22258 19.908 3.02082C18.7113 2.81906 17.4834 3.02892 16.4143 3.61792C15.3452 4.20691 14.4945 5.14221 13.9938 6.27908C13.493 7.41595 13.3703 8.69101 13.6444 9.90694C11.4539 9.79382 9.31092 9.20779 7.35463 8.18688C5.39835 7.16597 3.67248 5.73299 2.28904 3.98097C1.58446 5.2296 1.36866 6.70772 1.68558 8.11438C2.0025 9.52103 2.82831 10.7505 3.99487 11.5524C3.118 11.5259 2.26022 11.2824 1.49412 10.8424V10.9143C1.49447 12.2238 1.93483 13.4929 2.7405 14.5063C3.54618 15.5197 4.66757 16.215 5.91447 16.4743C5.10331 16.702 4.25222 16.7353 3.42662 16.5716C3.77884 17.6985 4.46433 18.6839 5.38726 19.3901C6.31019 20.0963 7.42443 20.488 8.5742 20.5104C7.43182 21.4348 6.12362 22.1182 4.72443 22.5216C3.32523 22.925 1.8625 23.0404 0.419922 22.8614C2.93964 24.5258 5.87142 25.4087 8.8653 25.4047" fill="#1DA1F2"/>
</g>
<defs>
<clipPath id="clip0_1275_234">
<rect width="26.8551" height="27.6449" fill="white" transform="translate(0.419922 0.355103)"/>
</clipPath>
</defs>
</svg>
