<svg width="28" height="28" viewBox="0 0 28 28" fill="none" xmlns="http://www.w3.org/2000/svg">
<g clip-path="url(#clip0_1275_236)">
<path d="M27.1519 7.47997C26.9956 6.89184 26.6875 6.35507 26.2586 5.92339C25.8297 5.49171 25.2949 5.18026 24.7078 5.0202C22.5465 4.43903 13.9074 4.43903 13.9074 4.43903C13.9074 4.43903 5.26839 4.43903 3.10705 5.0202C2.51994 5.18026 1.98516 5.49171 1.55623 5.92339C1.12731 6.35507 0.819286 6.89184 0.662991 7.47997C0.084961 9.65072 0.0849609 14.1776 0.0849609 14.1776C0.0849609 14.1776 0.084961 18.7044 0.662991 20.8752C0.819286 21.4633 1.12731 22.0001 1.55623 22.4318C1.98516 22.8634 2.51994 23.1749 3.10705 23.335C5.26839 23.9161 13.9074 23.9161 13.9074 23.9161C13.9074 23.9161 22.5465 23.9161 24.7078 23.335C25.2949 23.1749 25.8297 22.8634 26.2586 22.4318C26.6875 22.0001 26.9956 21.4633 27.1519 20.8752C27.7299 18.7044 27.7299 14.1776 27.7299 14.1776C27.7299 14.1776 27.7299 9.65072 27.1519 7.47997Z" fill="#FF0302"/>
<path d="M11.0801 18.2882V10.067L18.3054 14.1776L11.0801 18.2882Z" fill="#FEFEFE"/>
</g>
<defs>
<clipPath id="clip0_1275_236">
<rect width="27.6449" height="27.6449" fill="white" transform="translate(0.0576172 0.355103)"/>
</clipPath>
</defs>
</svg>
